# xmcd
#
# Track frame offsets:
#	150
#	10050
#	19385
#	26595
#	40770
#	51845
#	64872
#	73820
#	83852
#	93152
#	104355
#	114402
#	126430
#	137430
#	149287
#	166072
#	179520
#	188482
#	197765
#	211422
#	223102
#	233622
#
# Disc length: 3244
#
# Revision: 2
# Processed by: cddbd v1.5.1PL0 Copyright (c) Steve Scherf et al.
# Submitted via: audiograbber 1.82.02
# Normalized: r1:DSETVAR1
#
DISCID=350caa16
DTITLE=Various Artist - The Best Of Monogram Records
DYEAR=1900
DGENRE=Doo-Wop
TTITLE0=Venangos - My Girl
TTITLE1=Shells - Will You Miss Me
TTITLE2=Jose and The Aztecs - Baby Baby
TTITLE3=Eddie Carter Quartet - Little Joe
TTITLE4=Little Joey and The Flips - The Mystery Of The Night
TTITLE5=Versatiles - My Autumn Love
TTITLE6=Bay-Tones - Completely Lost My Mind
TTITLE7=Venangos - A Sad Sad Story
TTITLE8=Monograms - Baby
TTITLE9=Jewels - Strawberry Peak
TTITLE10=Dukays - Night Owl
TTITLE11=DeCals - Londonerry Air
TTITLE12=Rolling Stones - Sherrie's In Love
TTITLE13=Eddie Carter Quartet - Ooh-Lovin' Baby
TTITLE14=Incas - Cottage By The Sea
TTITLE15=Jewels - I Had A Dream
TTITLE16=Incas - The Time For Love
TTITLE17=Shells - I'm In The Doghouse
TTITLE18=Bay-Tones - Oh My Darling
TTITLE19=Note-Makers - Sally, The Cosmetic Queen
TTITLE20=DeCals - There In The Moonlight
TTITLE21=Note-Makers - Take Me As I Am
EXTD=
EXTT0=
EXTT1=
EXTT2=
EXTT3=
EXTT4=
EXTT5=
EXTT6=
EXTT7=
EXTT8=
EXTT9=
EXTT10=
EXTT11=
EXTT12=
EXTT13=
EXTT14=
EXTT15=
EXTT16=
EXTT17=
EXTT18=
EXTT19=
EXTT20=
EXTT21=
PLAYORDER=
